<?xml version="1.0" encoding="utf-8"?>
<!-- Generator: Adobe Illustrator 18.1.1, SVG Export Plug-In . SVG Version: 6.00 Build 0)  -->
<svg version="1.1" id="Layer_1" xmlns="http://www.w3.org/2000/svg" xmlns:xlink="http://www.w3.org/1999/xlink" x="0px" y="0px"
	 viewBox="0 0 318.4 132.8" enable-background="new 0 0 318.4 132.8" xml:space="preserve">
<g>
	<path d="M207,7.3c-1,1.5-0.1,14.2-0.9,21.9c-0.7,7.2-2.3,13.6-2.1,17.9c-0.2,2.4,20.8,2.6,23.3,1.1c1.2-0.5,5.5-37.2,1.5-41.2
		C223,6.1,207.5,6.8,207,7.3"/>
	<path d="M228.3,83.9c-3.5,0.9-22,0.5-22.8,1c-0.8,0.5,4.2,11,2.7,39.5c0.7,0.7,16.6,0.1,22.9,0C232.7,120.9,232.3,87.7,228.3,83.9"
		/>
	<path d="M241.4,1c-1.1,0.4-3.6,2.4-3.2,7.4c1.5,3.4,25.7,6.3,25.6,4.4c0.6-0.9-0.1-3,0.3-5.5c1.3-3.7,2.4-6.3,1.6-7.1
		C264.8-0.5,242.5,0.6,241.4,1L241.4,1z"/>
	<path d="M273.1,16.8c-1.4-0.3-12.7,1.4-18.9-0.2c-2.6-0.7-19.1-4.7-19.8-3.9c0,5.9,0,15.2-0.7,23.2c0.6,1.1,25.4,7,39.1,3.8
		C273.7,36.8,275.4,17.7,273.1,16.8L273.1,16.8z"/>
	<path d="M262.5,44.2c-13.6-0.7-20.2-2.4-24-2.6c-2,3,5.1,20.4,4,40.5c1.7,0.9,18.9,4.7,23.3,1.9C269.2,82.2,265.9,45.1,262.5,44.2
		L262.5,44.2z"/>
	<path d="M268,87.6c-17.3,1.5-35.3-4.3-36-3.6c-0.3,1,1.1,5.8,2,11c0.9,5.7,1.4,11.9,2.1,13.8c0.6,1.2,31,5.1,36.3,3
		C274.2,111.2,271.6,89.8,268,87.6L268,87.6z"/>
	<path d="M262.7,115.4c-6.4,0.3-15.7-1.9-22.8-0.9c-1.9,1.4,2.1,17.6,3.1,18c1,0.4,21.7,0.2,22.1,0.1
		C262.4,122.8,263.2,115.9,262.7,115.4L262.7,115.4z"/>
	<path d="M299.7,7.2c-3.4-4.1-22.8-0.7-23.4,0.1c-0.5,0.8,2,7.9,1.3,16.8c-0.8,11.4-4,24.5-3.4,25.1c1.1,1.1,19.9,2,22.3-0.3
		C298.9,46.7,303.9,14.5,299.7,7.2L299.7,7.2z"/>
	<path d="M318.4,51c-2.3-0.5-18.4,1.6-25.5,2.8c-7.1,1.2-23.3-1.3-24.2-1.2c-1.8,1.6,0.2,4.8,0.9,10.8c0.4,3.3,0.4,12.6,2.4,15.4
		c3.4,4.5,46.2-0.3,46.6-2C318.5,75.1,318.3,53.9,318.4,51L318.4,51z"/>
	<path d="M318.5,16.4c0,0-9.8-5.7-13.3-4.5c-0.9,1.7,0.6,12.2-1.5,27.1c1,1.7,13.2,4.7,14.3,4.8c0.7-0.5,0.6-23.9,0.5-27.5"/>
	<path d="M295.9,84.1c-8.5,0-11.5,0.6-20.3,0c-1.8,1.2,4,5.3,2.8,40.9c2.9,0,18.5,0.4,20.8-0.1C300.7,122.4,300.7,88.4,295.9,84.1
		L295.9,84.1z"/>
	<path d="M318.2,86.9c0,0-16.3-4-16.8-2.6c1.6,1.5,1.2,21.5,3.6,26.4c3.8,0.6,12.7,3,13.3,2.6c0.6-0.4-0.1-26.6-0.1-26.6"/>
	<g>
		<path d="M128,23.4c-0.9-0.5-1.8-0.8-2.9-0.8c-1.5,0-2.8,0.5-3.9,1.6c-1.1,1-1.6,2.8-1.6,5.2c0,1.9,0.5,3.5,1.6,4.6
			c1.1,1.1,2.4,1.7,3.9,1.7c1.6,0,2.9-0.6,4-1.7c1-1.1,1.6-2.7,1.6-4.8c0-1.3-0.2-2.5-0.7-3.4C129.5,24.7,128.9,23.9,128,23.4z"/>
		<path d="M145.9,26.9c0.3-0.4,0.4-0.9,0.4-1.4c0-0.8-0.3-1.4-0.8-1.9c-0.5-0.5-1.4-0.8-2.6-0.8h-5.1v5.3h4.6c1,0,1.7-0.1,2.3-0.3
			C145.2,27.6,145.6,27.3,145.9,26.9z"/>
		<path d="M30.4,22.3c-0.2,1.1-0.5,2.1-0.9,3.1l-1.8,4.8h5.6l-1.7-4.6C31.1,24.3,30.7,23.2,30.4,22.3z"/>
		<path d="M199.8,9.6c-2.4-0.9-8.3,4.1-20.5,5.9c-8.5-0.3-179.3,0-179.3,0l0.4,27c0,0,152.6-0.1,176.8,0c21.9-3.4,22.6-6.6,22.8-6.7
			C201.1,35.7,204.6,9.8,199.8,9.6z M15.9,37L9.6,20.6h2.3l4.3,11.9c0.3,1,0.6,1.8,0.9,2.7c0.2-0.9,0.5-1.8,0.9-2.7l4.4-11.9h2.2
			L18.2,37H15.9z M35.9,37L34,32h-6.9L25.3,37H23l6.3-16.4h2.4L38.4,37H35.9z M50.2,37H40V20.6h2.2V35h8.1V37z M62.9,37H52.7V20.6
			h2.2V35h8.1V37z M77.8,37H65.6V20.6h11.8v1.9h-9.7v5h9.1v1.9h-9.1V35h10.1V37z M87.6,30V37h-2.2V30l-6.3-9.5h2.6l3.2,5
			c0.6,0.9,1.1,1.9,1.7,2.8c0.5-0.9,1.1-1.8,1.8-2.9l3.2-4.8h2.5L87.6,30z M115.2,22.9h-8.8v5h7.6v1.9h-7.6v7.3h-2.1V21h10.9V22.9z
			 M131.8,33.5c-0.7,1.3-1.6,2.3-2.8,2.9c-1.2,0.7-2.5,1-3.9,1c-1.5,0-2.9-0.3-4.1-1.1c-1.2-0.7-2.1-1.7-2.7-3
			c-0.6-1.3-0.9-2.6-0.9-4c0-2.7,0.7-4.8,2.2-6.3c1.4-1.5,3.3-2.3,5.6-2.3c1.5,0,2.8,0.4,4,1.1c1.2,0.7,2.1,1.7,2.7,3
			c0.6,1.3,0.9,2.7,0.9,4.3C132.8,30.7,132.5,32.2,131.8,33.5z M147.1,37.2l-2.1-3.4c-0.6-1-1.1-1.7-1.5-2.2
			c-0.4-0.5-0.8-0.9-1.1-1.1c-0.3-0.2-0.6-0.4-1-0.4c-0.2,0-0.6-0.1-1.2-0.1h-2.5v7.2h-2.1V21h7.1c1.4,0,2.5,0.2,3.3,0.4
			c0.7,0.3,1.3,0.8,1.8,1.6c0.4,0.7,0.7,1.5,0.7,2.4c0,1.1-0.4,2.1-1.1,2.9c-0.7,0.8-1.9,1.3-3.4,1.5c0.6,0.3,1,0.5,1.3,0.8
			c0.6,0.6,1.2,1.3,1.8,2.1l2.8,4.4H147.1z M166.3,34.9c-1.1,0.8-2.1,1.5-3.3,1.9c-1.1,0.4-2.3,0.6-3.4,0.6c-1.6,0-3-0.3-4.3-1
			c-1.3-0.7-2.3-1.7-2.9-2.9c-0.7-1.3-1-2.7-1-4.3c0-1.6,0.3-3.1,1-4.4c0.7-1.4,1.6-2.4,2.8-3c1.2-0.7,2.7-1,4.3-1
			c1.2,0,2.2,0.2,3.2,0.6c1,0.4,1.7,0.9,2.2,1.6c0.5,0.7,0.9,1.6,1.2,2.6l-1.9,0.5c-0.2-0.8-0.5-1.5-0.9-1.9
			c-0.4-0.5-0.9-0.9-1.5-1.1c-0.7-0.3-1.4-0.4-2.2-0.4c-1,0-1.8,0.1-2.5,0.4c-0.7,0.3-1.3,0.7-1.7,1.2c-0.4,0.5-0.8,1-1,1.6
			c-0.4,1-0.6,2.1-0.6,3.3c0,1.4,0.2,2.6,0.7,3.6c0.5,1,1.2,1.7,2.2,2.2c0.9,0.5,1.9,0.7,3,0.7c0.9,0,1.8-0.2,2.7-0.5
			c0.9-0.4,1.6-0.7,2-1.1v-3h-4.7v-1.9h6.8V34.9z M181.5,37.2h-12V21h11.7v1.9h-9.5v4.9h8.9v1.9h-8.9v5.5h9.9V37.2z"/>
	</g>
	<g>
		<path d="M45.2,61.2c0.6-0.2,1-0.4,1.2-0.8c0.3-0.4,0.4-0.8,0.4-1.4c0-0.5-0.1-1-0.4-1.4c-0.3-0.4-0.6-0.7-1.1-0.8
			c-0.5-0.1-1.3-0.2-2.5-0.2h-3.3v4.9h3.5C44.1,61.4,44.8,61.4,45.2,61.2z"/>
		<path d="M45.7,63.6c-0.5-0.2-1.3-0.3-2.4-0.3h-3.8v5.6h4.1c0.7,0,1.2,0,1.5-0.1c0.5-0.1,0.9-0.2,1.2-0.4c0.3-0.2,0.6-0.5,0.8-0.9
			c0.2-0.4,0.3-0.8,0.3-1.4c0-0.6-0.2-1.1-0.5-1.6C46.7,64.1,46.3,63.8,45.7,63.6z"/>
		<path d="M28,56.3c-0.2,1-0.5,2.1-0.9,3.1l-1.8,4.8h5.5l-1.7-4.5C28.7,58.3,28.3,57.2,28,56.3z"/>
		<path d="M233.5,52.7C233.5,52.7,233.5,52.7,233.5,52.7c0.1,0,0.1,0,0.1,0H233.5z"/>
		<path d="M63,60.5c0.3-0.4,0.4-0.9,0.4-1.5c0-0.8-0.3-1.4-0.8-1.9c-0.6-0.5-1.4-0.8-2.7-0.8h-5.1v5.4h4.6c1,0,1.7-0.1,2.3-0.3
			C62.3,61.3,62.8,60.9,63,60.5z"/>
		<path d="M233.6,52.8c-7.1,2.9-49.7-2.1-55.2-3.3c-6.6,0.1-178.1,0-178.1,0L0.2,77.2c0,0,181.1,0.5,183.6,0
			c13.7,2.2,43.3,5.2,52.3-1.1C236.5,73.9,235.9,56.5,233.6,52.8z M19.8,63.5h-7.6v7.4H10V54.6h10.9v1.9h-8.8v5h7.6V63.5z
			 M33.4,70.8l-1.9-4.9h-6.8L23,70.8h-2.3l6.2-16.2h2.3l6.6,16.2H33.4z M49.3,68.3c-0.3,0.7-0.7,1.2-1.2,1.5
			c-0.5,0.4-1.1,0.6-1.8,0.8c-0.7,0.2-1.6,0.3-2.6,0.3h-6.2V54.6h6.1c1.2,0,2.2,0.2,3,0.5c0.7,0.3,1.3,0.8,1.8,1.5
			c0.4,0.7,0.7,1.4,0.7,2.1c0,0.7-0.2,1.3-0.6,1.9c-0.4,0.6-0.9,1.1-1.7,1.5c1,0.3,1.7,0.8,2.3,1.5c0.5,0.7,0.8,1.5,0.8,2.5
			C49.7,66.9,49.6,67.6,49.3,68.3z M64.3,70.8l-2.1-3.4c-0.6-1-1.1-1.7-1.5-2.2c-0.4-0.5-0.8-0.9-1.1-1.1c-0.3-0.2-0.6-0.3-1-0.4
			c-0.3,0-0.6-0.1-1.2-0.1h-2.5v7.2h-2.1V54.6h7.2c1.5,0,2.5,0.1,3.3,0.4c0.8,0.3,1.4,0.8,1.8,1.5c0.5,0.7,0.7,1.6,0.7,2.4
			c0,1.1-0.4,2.1-1.1,2.9c-0.8,0.8-1.9,1.3-3.5,1.5c0.6,0.3,1,0.5,1.3,0.8c0.6,0.6,1.2,1.3,1.8,2.2l2.8,4.4H64.3z M71.5,70.8h-2.1
			V54.6h2.1V70.8z M86.6,69.7c-1.2,0.9-2.6,1.4-4.3,1.4c-1.8,0-3.2-0.3-4.3-1.1c-1.1-0.7-1.9-1.7-2.5-3.1c-0.6-1.4-0.9-2.8-0.9-4.3
			c0-1.7,0.3-3.2,1-4.4c0.6-1.3,1.6-2.2,2.8-2.9c1.2-0.7,2.5-1,3.9-1c1.6,0,3,0.4,4.1,1.2c1.1,0.8,1.9,2,2.3,3.5l-2.1,0.5
			c-0.4-1.2-0.9-2-1.6-2.6c-0.7-0.5-1.6-0.8-2.7-0.8c-1.2,0-2.3,0.3-3.1,0.9c-0.8,0.6-1.4,1.4-1.8,2.4c-0.3,1-0.5,2-0.5,3.1
			c0,1.4,0.2,2.6,0.6,3.6c0.4,1,1,1.8,1.9,2.3c0.8,0.5,1.8,0.8,2.8,0.8c1.2,0,2.2-0.3,3-1c0.8-0.7,1.4-1.7,1.7-3.1l2.1,0.5
			C88.6,67.5,87.8,68.8,86.6,69.7z M103.1,68.7c-0.5,0.8-1.2,1.4-2.1,1.8c-0.9,0.4-2,0.6-3.1,0.6c-1.5,0-2.7-0.2-3.7-0.6
			c-1-0.4-1.8-1.1-2.3-1.9c-0.6-0.8-0.9-1.8-0.9-2.9l2-0.2c0.1,0.8,0.3,1.5,0.7,2c0.3,0.5,0.9,0.9,1.6,1.3c0.8,0.3,1.6,0.5,2.5,0.5
			c0.8,0,1.5-0.1,2.2-0.4c0.6-0.2,1.1-0.6,1.4-1c0.3-0.4,0.5-0.9,0.5-1.4c0-0.5-0.1-1-0.4-1.3c-0.3-0.4-0.8-0.7-1.5-1
			c-0.4-0.2-1.4-0.4-2.9-0.8c-1.5-0.4-2.6-0.7-3.1-1c-0.8-0.4-1.4-0.9-1.7-1.5c-0.4-0.6-0.6-1.3-0.6-2c0-0.8,0.2-1.6,0.7-2.3
			c0.5-0.7,1.1-1.2,2-1.6c0.9-0.4,1.9-0.6,3-0.6c1.2,0,2.3,0.2,3.2,0.6c0.9,0.4,1.6,0.9,2.1,1.7c0.5,0.7,0.8,1.6,0.8,2.5l-2.1,0.2
			c-0.1-1-0.5-1.8-1.1-2.3c-0.6-0.5-1.6-0.8-2.8-0.8c-1.3,0-2.3,0.2-2.9,0.7c-0.6,0.5-0.9,1-0.9,1.7c0,0.6,0.2,1.1,0.6,1.4
			c0.4,0.4,1.5,0.8,3.3,1.2c1.7,0.4,2.9,0.7,3.6,1c0.9,0.4,1.6,1,2.1,1.7c0.5,0.7,0.7,1.4,0.7,2.3C103.8,67.1,103.6,67.9,103.1,68.7
			z M109.3,70.8c0,0.8-0.1,1.5-0.4,2c-0.3,0.5-0.8,0.9-1.4,1.2l-0.6-0.9c0.4-0.2,0.7-0.5,0.9-0.8c0.2-0.3,0.3-0.9,0.3-1.5H107v-2.3
			h2.3V70.8z"/>
	</g>
	<path d="M198,83C195.6,82.9,0.2,83,0.2,83v26.4c0,0,201.5,0.3,202.6,0C203.8,98.9,199.2,84.2,198,83z M12.2,104H10V87.3h2.2V104z
		 M29.2,104h-2.3l-8.8-13.1V104h-2.1V87.3h2.3l8.8,13.1V87.3h2.1V104z M44.5,102.9c-1.2,0.9-2.7,1.4-4.4,1.4c-1.8,0-3.3-0.4-4.4-1.1
		c-1.1-0.7-2-1.8-2.6-3.2c-0.6-1.4-0.9-2.9-0.9-4.5c0-1.7,0.3-3.2,1-4.6c0.7-1.3,1.6-2.3,2.8-2.9c1.2-0.7,2.6-1,4-1
		c1.7,0,3.1,0.4,4.2,1.3c1.1,0.9,1.9,2,2.4,3.6l-2.2,0.5c-0.4-1.2-0.9-2.1-1.7-2.6c-0.7-0.6-1.7-0.8-2.8-0.8c-1.3,0-2.4,0.3-3.2,0.9
		c-0.9,0.6-1.5,1.4-1.8,2.5c-0.4,1-0.5,2.1-0.5,3.2c0,1.4,0.2,2.7,0.6,3.7c0.4,1.1,1.1,1.8,1.9,2.4c0.9,0.5,1.8,0.8,2.8,0.8
		c1.2,0,2.3-0.4,3.1-1.1c0.9-0.7,1.4-1.8,1.8-3.2l2.2,0.6C46.6,100.5,45.7,101.9,44.5,102.9z M52.4,104h-2.3v-2.3h2.3V104z"/>
</g>
</svg>
