<svg id="waveUp" xmlns="http://www.w3.org/2000/svg" viewBox="0 0 800 114.51">
  <title>Artboard 1</title>
  <polygon points="54.61 51.02 54.61 51.02 72.86 82.1 81.85 62.42 71.21 47.35 54.61 51.02" fill="#fff"/>
  <polygon points="54.13 51.61 43.94 66.41 52.95 77.7 61.86 64.77 54.19 51.71 54.13 51.61" fill="#fff"/>
  <polygon points="51.42 51.73 35.1 55.33 43.48 65.83 52.35 52.94 51.42 51.73" fill="#fff"/>
  <polygon points="72.99 48.6 82.2 61.66 90.71 43.05 74.32 46.67 72.99 48.6" fill="#fff"/>
  <circle cx="64.97" cy="59.49" r="36.67" fill="none" stroke="#fff" stroke-miterlimit="10" stroke-width="4"/>
  <path d="M184.32,42.8a16.23,16.23,0,0,1,3.89.58l1.2-7.17s-2.57-.87-8.68-.87a8.56,8.56,0,0,0-7.48,3.52c-1.51,2-1.53,5.18-1.53,7.25v4.73h-4.87v7h4.87V82.18h9.05V57.81h7.14l.54-7h-7.68v-5.5C180.77,43.47,182.44,42.8,184.32,42.8Z" fill="#fff"/>
  <circle cx="178.01" cy="59.49" r="36.67" fill="none" stroke="#fff" stroke-miterlimit="10" stroke-width="4"/>
  <path d="M307.19,42.73H276.52s-8,0-8,8.06V67.52s0,8.17,8,8.17h30.67s8-.1,8-8.17V50.79S315.26,42.73,307.19,42.73ZM285.66,68.17v-18l15.32,9Z" fill="#fff"/>
  <circle cx="291.05" cy="59.49" r="36.67" fill="none" stroke="#fff" stroke-miterlimit="10" stroke-width="4"/>
  <path d="M428.38,46.48A19.23,19.23,0,0,1,422.85,48a9.63,9.63,0,0,0,4.23-5.32A19.21,19.21,0,0,1,421,45a9.63,9.63,0,0,0-16.39,8.77,27.3,27.3,0,0,1-19.82-10,9.64,9.64,0,0,0,3,12.84,9.2,9.2,0,0,1-4.37-1.2v.12A9.63,9.63,0,0,0,391.15,65a9.35,9.35,0,0,1-2.53.34,9.5,9.5,0,0,1-1.81-.17,9.62,9.62,0,0,0,9,6.68,19.45,19.45,0,0,1-14.24,4,27.25,27.25,0,0,0,14.74,4.32c17.69,0,27.36-14.65,27.36-27.36V51.53A19.5,19.5,0,0,0,428.38,46.48Z" fill="#fff"/>
  <circle cx="404.09" cy="59.49" r="36.67" fill="none" stroke="#fff" stroke-miterlimit="10" stroke-width="4"/>
  <path d="M525.73,37.39h-17A12.86,12.86,0,0,0,495.84,50.2v18A12.87,12.87,0,0,0,508.76,81h17a12.9,12.9,0,0,0,12.89-12.86v-18A12.85,12.85,0,0,0,525.73,37.39Zm-8.48,32.18a10.42,10.42,0,1,1,10.42-10.42h0a10.42,10.42,0,0,1-10.42,10.42h0ZM530.07,49.1a2.85,2.85,0,1,1,2.85-2.85h0a2.85,2.85,0,0,1-2.84,2.86h0Z" fill="#fff"/>
  <circle cx="517.14" cy="59.49" r="36.67" fill="none" stroke="#fff" stroke-miterlimit="10" stroke-width="4"/>
  <path d="M620.76,74.43h-7V51.89h7Zm-3.7-25.36H617a3.91,3.91,0,0,1-4.19-3.61q0-.15,0-.3c0-2.23,1.7-3.91,4.3-3.91a3.93,3.93,0,0,1,4.24,3.6q0,.16,0,.31C621.36,47.34,619.71,49.07,617.06,49.07Zm31.88,25.36h-8V62.76c0-3-1.25-5.14-4-5.14a4,4,0,0,0-3.81,2.76,5.19,5.19,0,0,0-.17,1.84v12.2h-7.91s.1-20.66,0-22.54H633v3.54c.47-1.55,3-3.75,7-3.75,5,0,8.94,3.24,8.94,10.22Z" fill="#fff"/>
  <circle cx="630.18" cy="59.49" r="36.67" fill="none" stroke="#fff" stroke-miterlimit="10" stroke-width="4"/>
  <path d="M723.94,50.17c0-4.23,7.06-4.57,7.06,0V69.05c0,5.54,10.13,7.41,10.13-.16,0-3.51-1.43-4.57-5.22-5a3.6,3.6,0,0,1-.45-7.11c3.48-.78,12.83,1.22,13.08,11.71.21,9-7.55,13-12.74,13s-11.89-4.31-11.89-12.82C723.91,61,723.94,50.31,723.94,50.17Z" fill="#fff"/>
  <path d="M739.35,52V46.51a18.79,18.79,0,0,1,13.77,5.69A22.81,22.81,0,0,1,759,65.94h-5.51a16.42,16.42,0,0,0-4.5-10C745.24,52.1,739.35,52,739.35,52Z" fill="#fff"/>
  <path d="M739.35,42.25V36.49a29.53,29.53,0,0,1,29.5,29.45h-5.76s.17-10.07-7.21-17.21C748.82,41.92,739.35,42.25,739.35,42.25Z" fill="#fff"/>
  <circle cx="743.22" cy="59.49" r="36.67" fill="none" stroke="#fff" stroke-miterlimit="10" stroke-width="4"/>
</svg>
